<?xml version="1.0" encoding="UTF-8"?><svg id="_圖層_1" xmlns="http://www.w3.org/2000/svg" viewBox="0 0 425.917 921.617"><defs><style>.cls-1{fill:#010000;}</style></defs><g id="_生成式物件"><path class="cls-1" d="M340.033,411.607c.066.539.066,1.081,0,1.619-1.405-.218-2.365-.032-3.337.734-1.219.963-1.162,2.291-2.34,3.545l-73.997,98.938-46.738,62.681,90.766,2.486c-2.417-.727-3.175,1.301-5.007,3.389l-11.237,12.808-12.906,14.563-12.944,14.576-12.918,14.557-11.408,12.979-12.919,14.557-12.951,14.573-12.954,14.571-12.982,14.585-14.472,16.155-11.464,13.004-14.444,16.138-11.464,13.004-14.476,16.153-13.013,14.597-14.508,16.168-13.013,14.597-14.477,16.152-11.466,13.002-14.477,16.152-13.033,14.614-16.035,17.919c-2.811,3.141-7.068,5.434-6.58,9.577-1.071.54-2.019,1.39-3.238,1.619.43-1.992.735-4.696,1.619-6.476,2.346-.156,2.669-2.304,3.765-4.479l59.083-117.177,21.056-42.363,42.076-82.271c2.019-3.947,12.678-20.965,9.795-24.071l-73.293-.127c7.036-13.815,13.431-26.665,20.388-40.032l21.041-40.427,13.997-26.652,16.649-32.194c2.068-3.999,6.257-7.344,4.456-12.786l-86.866-.062c-.694-.777-.265-2.628-.336-3.177,11.495-15.362,18.515-33.739,27.71-51.538l28.72-55.6,21.026-40.455,11.131-21.325c.859-1.645.585-3.651.184-5.906l-99.584-.18c-1.03-.002-2.407-2.846-2.138-3.094,23.397-44.421,42.665-90.944,64.413-137.817L184.451,1.926l234.822.012c2.58,0,5.467-4.372,6.644.02l-162.014,227.932,110.942.817-30.456,39.792-102.665,136.62c-.74.985-.149,4.292,1.698,4.296l96.611.191Z"/></g></svg>